<svg xmlns="http://www.w3.org/2000/svg" width="1024" height="1024" viewBox="0 0 1024 1024"><path fill-rule="evenodd" d="M0 512.001v512.001l512.25-.251 512.25-.251.251-511.75.251-511.75H0zm.496.499c0 281.6.114 396.651.254 255.668.14-140.982.14-371.382 0-512C.61 115.551.496 230.9.496 512.5M476.5 108.63c-79.836 7.383-155.867 38.706-218 89.813-10.181 8.374-38.5 34.602-38.5 35.657 0 .495 5.082.9 11.293.9h11.293l8.457-7.853c49.511-45.978 112.636-79.361 176.957-93.581 77.225-17.074 156.216-10.537 228 18.867 42.243 17.303 81.07 41.986 115.5 73.424l10 9.131 10.75.006c5.913.003 10.75-.262 10.75-.59 0-2.864-25.782-27.081-43.87-41.205-44.999-35.141-97.346-60.972-150.165-74.1-42.612-10.591-90.349-14.363-132.465-10.469m3.321 44.421c-56.486 5.025-112.125 24.584-161.289 56.696-13.22 8.636-32.532 22.948-32.532 24.11 0 .354 5.191.604 11.535.555 10.52-.08 11.818-.298 14.75-2.475 19.629-14.576 50.825-31.639 76.489-41.837 25.015-9.94 52.718-16.855 85.226-21.272 15.159-2.06 63.349-1.748 80 .518 42.966 5.848 79.025 17.286 115.778 36.726 12.331 6.522 30.373 17.538 39.587 24.171l5.865 4.222 11.382.018c6.261.009 11.384-.222 11.385-.514.007-1.467-25.568-20.101-40.012-29.152-44.784-28.066-95.974-45.637-149.485-51.311-14.875-1.577-53.208-1.831-68.679-.455m23.148 83.425c-10.766 3.462-17.942 13.773-17.959 25.806-.012 8.204 1.522 12.17 7.007 18.121 7.833 8.497 22.257 11.076 32.551 5.819 4.873-2.488 11.031-9.06 13.195-14.082 1.99-4.621 1.988-15.492-.005-20.213-5.308-12.575-21.445-19.743-34.789-15.451m-173.598 12.732c-.665 1.076 2.768 5.012 7.037 8.071 2.682 1.921 4.708 2.127 26 2.652l23.092.569.5 4.5.5 4.5 14.25.277 14.25.278V281l-4.25-.014c-5.799-.018-8.75-.932-8.75-2.71 0-.948-.575-1.269-1.582-.883-.87.334-4.357.688-7.75.787l-6.168.18 7.5.64c7.199.614 7.059.642-3.5.702-6.506.036-9.774-.235-8-.663 2.675-.646 2.783-.809 1-1.499-5.826-2.254-7.5-3.098-7.5-3.784 0-.416 1.238-.763 2.75-.771 5.467-.031 5.517-1.675.07-2.329-7.599-.912-26.82-.807-26.82.148 0 1.576 6.564 7.121 10.25 8.659 3.688 1.538 3.75 1.655 3.75 7.05V292l18.25.057c10.038.032 21.063.292 24.5.578l6.25.52V281h11.836l.517 7.25c.705 9.894.725 9.963 2.814 9.417 1.008-.264 1.833-.052 1.833.47 0 .523.563.846 1.25.718 1.917-.356 8.075 1.238 9.692 2.51 1.107.871 1.267.845.691-.115-.468-.778-.185-1.25.751-1.25.963 0 1.363.717 1.116 2-.231 1.201.153 2 .962 2 .741 0 6.088 3.125 11.883 6.944 17.803 11.734 22.061 13.395 29.336 11.444 3.746-1.005 1.41-4.326-4.436-6.305-10.233-3.464-19.805-11.934-24.391-21.583-2.554-5.373-2.853-7.06-2.853-16.139-.001-8.245-.328-10.504-1.751-12.093-4.263-4.759-18.069-16.249-20.747-17.267-3.72-1.414-103.252-1.217-104.132.207m261.129-.099c-1.65.52-7.273 4.966-12.494 9.88l-9.495 8.934-.088 9.788c-.069 7.605-.587 11.071-2.326 15.536-4.025 10.334-14.866 19.721-27.404 23.729-3.042.972-3.745 1.65-3.5 3.37.69 4.841 12.004 2.813 21.807-3.909 11.095-7.608 17.009-12.054 20.384-15.324 1.786-1.732 3.627-2.803 4.091-2.381s.567-.005.228-.95-.116-2.027.495-2.404c.611-.378.846-.259.522.265s-.175 1.606.331 2.405c.63.996.923 1.06.934.202.009-.782 1.463-1.25 3.88-1.25 5.969 0 8.569-2.637 8.947-9.073.172-2.926.536-5.682.809-6.123.274-.442 2.897-.804 5.831-.804 5.97 0 6.548-.625 6.548-7.082V270h27.89l.305-4.75.305-4.75 22.54-.602c15.148-.405 23.347-1.018 25-1.87 3.392-1.748 8.96-7.148 8.96-8.69 0-1.01-10.378-1.259-50.75-1.222-28.941.027-52.039.454-53.75.993M212 250.35c0 2.586 5.914 10.127 11.655 14.86 6.681 5.509 17.231 10.936 25.845 13.296 8.374 2.294 26.126 2.87 61.808 2.007 29.695-.719 30.564-.796 28.412-2.539-2.006-1.623-3.413-7.52-1.516-6.348.438.271.796.077.796-.431s-2.137-1.726-4.75-2.708c-2.613-.981-6.001-2.658-7.53-3.725-2.584-1.804-10.72-13.159-10.72-14.961 0-.44-23.4-.801-52-.801-42.979 0-52 .234-52 1.35m494.017 3.324c-1.364 2.571-4.039 6.283-5.944 8.25s-3.394 3.861-3.308 4.208c.086.348-.388.573-1.054.5s-1.211.136-1.211.464-.61 1.331-1.355 2.229c-1.044 1.259-1.804 1.393-3.314.585-2.053-1.099-4.831.262-4.831 2.367 0 .568.9.218 2-.777 2.161-1.956 2.189-1.928 2.375 2.425.106 2.486-.325 3.018-2.875 3.545-2.681.554-2.805.732-1.162 1.674 1.194.685 16.26 1.107 43 1.205 37.743.138 41.66-.005 47.162-1.729 13.875-4.346 27.822-13.726 34.168-22.979 1.832-2.673 3.332-5.26 3.332-5.75 0-.51-22.354-.891-52.252-.891h-52.251zM532.171 258.5c.08 1.1.068 2.9-.028 4-.144 1.66-.334 1.746-1.119.505-.811-1.283-1.159-1.212-2.453.5-1.506 1.993-1.507 1.993-1.556-.005-.035-1.476-.633-.984-2.281 1.875-4.461 7.738-16.877 13.339-20.824 9.393-2.346-2.347-5.863-3.915-7.085-3.16-.677.419-.859.256-.452-.403.585-.946-2.1-3.205-3.807-3.205-1.212 0-.462 3.638 1.302 6.314 4.668 7.08 16.587 10.671 25.573 7.705 4.333-1.429 10.07-6.172 12.013-9.931 2.007-3.88 2.936-11.586 1.659-13.748-1.031-1.745-1.08-1.736-.942.16m-342.299 10.238c-43.226 57.259-70.98 124.311-79.374 191.762-8.723 70.104 1.088 142.364 27.874 205.294 25.203 59.209 57.921 104.955 105.107 146.955 24.181 21.524 47.858 38.219 77.021 54.307 24.417 13.47 74.95 33.638 78.613 31.374.669-.413.935-.316.603.221-.648 1.048 17.78 6.183 33.784 9.413 15.382 3.105 34.571 5.75 50 6.892 17.889 1.324 47.559 1.367 45.501.066-.982-.621.914-.753 5.5-.382 8.778.708 32.19-1.841 51.986-5.661 60.551-11.684 117.022-36.77 168.513-74.858 25.123-18.584 55.543-48.46 76.91-75.534 9.242-11.711 28.013-40.372 35.489-54.189 11.512-21.275 25.074-53.134 31.245-73.398 16.757-55.025 21.929-111.859 15.286-168-1.432-12.11-8.234-45.296-12.296-60-9.708-35.133-28.82-76.926-50.148-109.654-8.18-12.553-24.574-34.489-25.515-34.14-.436.162-2.889 3.15-5.451 6.641l-4.659 6.347 6.966 9.153c29.451 38.695 52.626 86.644 65.146 134.787 8.18 31.454 12.029 62.125 12.025 95.816-.006 38.879-4.314 69.465-15.114 107.289-26.778 93.787-89.69 174.984-175.226 226.157-48.341 28.921-100.801 46.613-157.485 53.113-13.733 1.575-56.073 2.142-70.963.95-61.871-4.951-128.298-28.021-180.71-62.761C221.024 784.02 164.374 707.623 139.074 619c-6.026-21.108-9.511-38.479-13.243-66-2.045-15.079-1.705-70.182.534-86.5 9.753-71.098 34.031-130.975 75.268-185.638l7.271-9.639-2.068-1.861c-1.138-1.024-3.388-3.775-5-6.112s-3.31-4.25-3.772-4.25-4.149 4.382-8.192 9.738m500.638.278c.346.559 1.047.758 1.559.441 1.387-.857 1.129-1.457-.628-1.457-.857 0-1.276.457-.931 1.016m-49.51 1.96c0 .964 2.498 2.018 4.832 2.039.917.009 2.303.418 3.08.91 2.047 1.296-.904 4.023-4.591 4.243-1.551.093-.121.467 3.179.832 4.358.482 1.485.737-10.5.931-9.075.147-18.975.56-22 .918l-5.5.651-.31 4.89c-.171 2.689.054 5.224.5 5.633.445.41 11.61.46 24.81.111l24-.634.173-4.5c.096-2.475.208-4.972.25-5.549s1.608-1.603 3.48-2.28c4.077-1.474 8.22-4.598 9.656-7.28 1.018-1.904.627-1.952-15.007-1.839-8.829.063-16.052.479-16.052.924m-243 .479c0 .772 2.976 1.392 3.399.709.254-.412-.406-.814-1.468-.894s-1.931.003-1.931.185M331 275c0 .55.45 1 1 1s1-.45 1-1-.45-1-1-1-1 .45-1 1m-107.783 24.25c-22.826 30.772-41.394 66.145-52.866 100.707-18.502 55.741-22.747 116.714-12.222 175.543 24.294 135.792 127.299 247.322 261.773 283.438 45.825 12.308 90.564 15.4 137.598 9.51 74.69-9.352 148.116-44.658 202.911-97.565 45.51-43.943 75.028-90.988 94.043-149.883 11.816-36.596 16.938-69.968 16.883-110-.087-63.774-14.874-119.19-47.096-176.5-7.144-12.706-27.425-42.26-30.161-43.951-.415-.256-2.633 2.255-4.929 5.581l-4.173 6.048 7.976 11.161c14.943 20.91 29.871 47.91 39.343 71.161 32.604 80.031 32.814 172.739.577 254.215-8.599 21.732-22.528 48.428-33.335 63.888-4.511 6.453-4.539 6.544-4.539 14.906v8.414l-4.25 1.05c-10.521 2.601-11.432 3.048-14.798 7.264-6.841 8.567-30.754 32.318-42.038 41.753-40.395 33.776-88.358 58.309-139.414 71.312-28.215 7.185-51.842 10.033-83.5 10.063-24.978.024-33.837-.769-60.059-5.378-45.785-8.046-93.547-27.931-133.941-55.764-22.318-15.379-45.423-35.993-67.054-59.825-6.14-6.765-6.791-7.19-13.696-8.943l-7.25-1.841v-8.378c0-8.279-.051-8.45-4.362-14.557-22.141-31.362-41.624-78.437-50.716-122.538-13.419-65.091-6.962-135.127 18.075-196.034 11.976-29.135 22.601-47.581 46.361-80.484.84-1.164-6.025-13.48-7.569-13.578-.391-.025-3.799 4.118-7.572 9.205M316 291.047c-8.525.378-26.187.748-39.25.821-18.767.104-23.75.405-23.75 1.434 0 2.327 12.208 13.733 18.939 17.694 10.26 6.038 16.486 7.521 31.061 7.399 13.245-.111 28.321-2.792 44-7.825l7.5-2.407-4.809-.082c-2.683-.045-4.556-.491-4.235-1.009.315-.51-.284-1.2-1.332-1.533-1.635-.519-1.744-.952-.765-3.064.913-1.967 1.942-2.488 5.141-2.603 2.317-.084 3.053-.327 1.75-.578-3.775-.727-2.507-2.294 1.857-2.294 3.519 0 4.004-.25 3.387-1.75a41 41 0 0 1-1.224-3.5c-.562-1.954-7.326-2.078-38.27-.703m353.6 1.759c-2.123 4.105-2.091 4.194 1.507 4.194 2.351 0 2.967.365 2.531 1.5-.441 1.149.207 1.5 2.771 1.5 1.84 0 3.906.675 4.591 1.5 1.004 1.209.979 1.503-.128 1.515-1.078.012-1.05.224.128.985 1.221.789 1.095.972-.679.985-1.198.008-2.833.67-3.634 1.471-1.501 1.501-7.089 1.271-11.187-.46-2.456-1.038-7.774-1.937-7.025-1.188 2.24 2.24 39.394 11.372 53.995 13.272 16.74 2.177 30.309-.791 43.397-9.492 6.307-4.193 16.133-13.658 16.133-15.54 0-.405-15.187-1.034-33.75-1.399-18.562-.365-41.242-.95-50.4-1.301l-16.649-.637zm-177.585 8.423c.02 5.537.869 6.725 5.589 7.819 4.88 1.133 22.446 1.145 28.268.02 5.235-1.011 6.233-2.293 5.889-7.568l-.261-4-19.75-.271-19.75-.271zM356.5 299c.34.55.816 1 1.059 1s.441-.45.441-1-.477-1-1.059-1-.781.45-.441 1m308.881 1.172c-1.864 2.1-1.861 2.109.369.938 1.237-.649 2.25-.884 2.25-.523 0 .362.604.157 1.342-.456.738-.612 1.638-.893 2-.622.362.27.421.179.132-.201-1.189-1.566-4.331-1.121-6.093.864m-88.509 2.492c-1.244 1.508-1.162 1.552.878.465 2.327-1.24 2.9-2.129 1.372-2.129-.482 0-1.495.749-2.25 1.664m-189.122.025c-1.29.337-1.75 1.484-1.75 4.361 0 3.079.538 4.256 2.545 5.571 2.246 1.472 4.652 1.585 20.5.959l17.955-.708V323.9l-5.75.3-5.75.3-.304 5.299-.304 5.299 6.304-.299 6.304-.299.302-5.25.303-5.25H439l.125-4c.069-2.2.181-4.788.249-5.75.107-1.516-.711-1.718-6.125-1.514l-6.249.237V302l-18.75.116c-10.312.064-19.538.322-20.5.573m209.157.54c-.051.699-.018 3.161.073 5.471l.165 4.201-6.323.299-6.322.3-.301 5.202-.3 5.201-5.7.299c-5.374.281-5.692.441-5.568 2.798.072 1.375.185 3.738.25 5.25.114 2.645.325 2.75 5.502 2.75 5.912 0 6.574-.777 6.603-7.75L585 324h12v11h12v-11h-12v-11.186l18.33.719c22.065.866 22.922.624 22.472-6.346l-.302-4.687-20.25-.271c-15.814-.211-20.27.008-20.343 1M358 319.044c-17.038 4.951-42.434 10.676-51.278 11.56-3.728.373-7.009 1.052-7.292 1.509-.744 1.204 11.058 9.691 18.07 12.993 15.152 7.137 27.799 7.554 45.86 1.51 13.575-4.543 37.306-16.463 33.016-16.584-.619-.018-3.026.639-5.351 1.459-9.833 3.469-13.974 4.4-14.658 3.294-.372-.602-.269-.856.228-.565.498.292 1.805.168 2.905-.275 1.782-.717 1.714-.812-.615-.875-3.153-.084-7.439-3.257-8.168-6.046-.292-1.113-.442-2.024-.335-2.024s2.566-.835 5.463-1.855l5.269-1.856-2.646-3.144c-1.527-1.815-3.56-3.119-4.807-3.084-1.189.033-8.236 1.826-15.661 3.983m287.908-1.134c-2.838 3.84-2.842 4.325-.032 4.753 1.307.2 3.845 1.06 5.64 1.912 3.993 1.895 3.692 5.108-.618 6.611-1.549.539-3.092 1.85-3.429 2.912s-1.038 1.668-1.557 1.347c-.52-.321-.726-.937-.459-1.37.268-.432-.558-.586-1.834-.342-2.518.481-6.082-.417-14.619-3.685-5.325-2.038-5.42-2.041-3-.114 4.831 3.846 23.612 12.916 34.159 16.496 18.151 6.162 31.271 5.905 45.596-.893 8.542-4.054 20.494-12.326 19.689-13.627-.309-.501-2.108-.91-3.996-.91-5.611 0-27.514-4.606-49.889-10.492-11.517-3.029-21.516-5.508-22.22-5.508-.703 0-2.247 1.31-3.431 2.91m-143.158-.275c-1.536.449-1.752 1.938-1.767 12.188-.021 14.059 2.174 94.53 2.593 95.029.162.193 2.461-.368 5.109-1.248l4.815-1.599.133-6.382c.073-3.51.622-7.224 1.219-8.253.847-1.457 1.094-.05 1.118 6.38.03 8.233.625 9.445 3.672 7.485.807-.519 1.477-15.686 2.28-51.622.626-27.988.908-51.116.628-51.397-.71-.709-17.658-1.207-19.8-.581M440 329.55v5.55l5.75-.3c5.506-.287 5.764-.422 6.078-3.171.181-1.579.059-3.941-.269-5.25-.538-2.143-1.14-2.379-6.078-2.379H440zm-33.896 8.968c-4.038 1.934-13.569 6.927-21.181 11.094-7.612 4.168-16.438 8.633-19.612 9.923s-5.908 2.755-6.074 3.254c-.419 1.256 10.236 5.905 16.719 7.295 8.174 1.753 21.402.734 28.544-2.198 5.961-2.448 29.036-17.683 28.14-18.58-.258-.257-4.67 1.773-9.804 4.511-11.975 6.388-13.435 6.823-14.118 4.211-.292-1.115-1.248-2.028-2.124-2.028-1.417 0-2.129-1.864-1.672-4.373.088-.48-.646-.59-1.631-.245-2.012.705 1.431-2.389 7.103-6.382 2.978-2.097 3.555-3.105 3.578-6.25.016-2.062-.097-3.75-.25-3.75s-3.581 1.583-7.618 3.518m203.896.414c0 3.742.348 4.177 7.194 9 6.23 4.389 6.832 5.068 4.5 5.068-1.728 0-2.694.538-2.694 1.5 0 .825-.482 1.5-1.071 1.5-1.481 0-3.973 2.622-3.215 3.381 1.75 1.75-2.48.027-13.259-5.4-12.296-6.19-12.257-5.946.545 3.446 14.432 10.587 22.064 13.541 35.04 13.561 4.147.007 10.117-.659 13.267-1.48 5.427-1.413 16.291-6.279 15.542-6.961-.192-.175-3.758-1.729-7.926-3.453-4.167-1.725-16.215-7.852-26.773-13.615S611.514 335 610.977 335c-.538 0-.977 1.769-.977 3.932M451 341c0 4.945.035 5.002 3.25 5.141 4.477.195 9.043-.101 9.56-.618.237-.237.124-2.476-.251-4.977l-.682-4.546H451zm109 0v5h13v-10h-13zm-111.5 20.039c-18.847 3.864-29.858 14.12-32.454 30.231-1.955 12.131 3.693 26.538 14.256 36.362 6.53 6.073 17.745 13.017 25.866 16.015 4.634 1.711 4.694 1.706 8.243-.712 1.966-1.339 3.578-2.862 3.582-3.385s-.494-.449-1.106.163c-2.089 2.089-17.582-3.54-26.892-9.771-6.092-4.077-12.288-9.983-11.402-10.869.314-.313 1.096.143 1.739 1.015.642.872 2.169 2.119 3.393 2.771 1.989 1.059 2.293.917 2.859-1.337.348-1.387 1.024-2.522 1.503-2.522s.357 1.127-.271 2.504c-1.368 3.003-.397 4.34 2.045 2.815 2.23-1.393 4.923-.017 6.118 3.125.861 2.264 5.021 4.256 5.021 2.403 0-.531.457-.682 1.016-.337s.715 1.117.346 1.714c-.392.633-.207.799.443.397.612-.379 1.919-.288 2.904.202s3.141 1.579 4.791 2.419 4.462 1.84 6.25 2.222 3.25 1.125 3.25 1.651c0 .528 1.007.408 2.25-.269 1.238-.673 6.464-2.865 11.615-4.871l9.366-3.647-6.366-1.726c-28.324-7.683-44.47-16.815-47.853-27.066-1.587-4.807-.792-12.016 1.617-14.679 1.027-1.134 3.217-2.763 4.869-3.621 1.679-.872 2.451-1.744 1.752-1.981-.687-.232-1.25-.834-1.25-1.338 0-1.853 1.557-.805 3.685 2.481 2.677 4.135 11.218 7.348 21.98 8.268 10.079.862 12.569-.421 4.914-2.533-3.257-.898-6.129-2.264-6.384-3.035-.35-1.059.119-1.227 1.921-.685 1.311.393 5.404.971 9.095 1.283 6.451.545 6.757.469 7.861-1.955 1.499-3.289.83-4.336-7.411-11.604-5.46-4.816-8.384-6.546-14.503-8.584-7.883-2.626-11.717-2.937-18.658-1.514m108.699 1.308c-4.299 1.494-8.82 4.249-14.233 8.672-4.363 3.564-8.153 7.047-8.422 7.74-.268.692-.042 2.432.504 3.867l.992 2.609 9.73-.596c8.848-.542 9.458-.469 6.73.805-1.65.771-5.213 1.714-7.917 2.096-8.238 1.162-2.769 2.81 7.311 2.202 10.32-.622 18.99-3.627 22.5-7.798 2.803-3.332 3.985-3.769 3.224-1.194-.355 1.201.487 2.383 2.682 3.766 7.06 4.448 7.039 14.783-.047 22.625-8.849 9.796-18.669 13.935-53.294 22.462-39.613 9.755-52.615 15.281-65.39 27.795-8.28 8.109-12.144 15.074-13.832 24.928-1.944 11.347 2.606 22.848 12.964 32.771 4.689 4.492 11.155 8.933 12.917 8.873.485-.017.041-.52-.988-1.117-1.51-.877-1.606-1.254-.5-1.955.844-.534.927-.873.216-.883-2.146-.028-13.239-12.478-16.052-18.015-2.336-4.598-2.789-6.73-2.763-13 .026-6.257.541-8.577 3.105-14 1.69-3.575 4.015-7.625 5.167-9 2.039-2.435 2.079-2.441 1.529-.25-.311 1.238-.963 2.25-1.449 2.25-.485 0-.883.9-.883 2s-.45 2-1 2c-1.79 0-1.052 1.999.75 2.032.962.017 2.624.692 3.691 1.5 1.068.807 2.305 1.468 2.75 1.468 1.432 0 .862-2.237-.941-3.695-1.599-1.293-1.567-1.327.369-.395 3.246 1.563 3.56.191.788-3.443-1.638-2.148-2.129-3.521-1.417-3.961.6-.37 2.005.489 3.123 1.91s2.382 2.584 2.81 2.584 2.737-2.454 5.13-5.454c3.271-4.099 4.667-5.193 5.619-4.403.916.76 1.957.507 3.763-.913 1.374-1.081 2.329-2.137 2.124-2.347-.206-.211 1.471-.492 3.725-.624 4.231-.249 7.33-2.101 4.966-2.967-1.954-.717-1.466-2.304.5-1.626 1.409.486 1.36.3-.248-.95-1.1-.854-1.625-1.926-1.169-2.383.782-.782 1.822.257 4.174 4.169.865 1.438 1.398 1.498 3.75.427 1.509-.688 2.743-1.869 2.743-2.625 0-1.049.458-1.129 1.934-.339 2.629 1.407 5.066 1.303 5.066-.215 0-.722 1.372-1.294 3.25-1.354 1.788-.057 5.95-.681 9.25-1.387s7.237-1.286 8.75-1.29c1.513-.003 2.75-.391 2.75-.863 0-.471-.675-.856-1.5-.856-1.99 0-1.896-.979.25-2.608 1.162-.882 1.31-1.339.441-1.36-.72-.018-1.026-.489-.681-1.048 1.033-1.672 2.62.032 1.962 2.105-.886 2.791 1.881 3.446 6.1 1.444 3.532-1.676 3.545-1.706 1.868-4.265-1.463-2.233-1.481-2.498-.129-1.979.858.329 1.801.061 2.095-.595.329-.732.501-.614.446.306-.239 4.021.236 5 2.425 5 4.025 0 6.72-2.718 6.75-6.807l.027-3.693 2.911 3.5c2.119 2.548 3.213 3.202 4.02 2.403 1.614-1.596 1.715-9.352.135-10.329-.951-.587-.667-.971 1.035-1.398 1.29-.324 2.682-.608 3.095-.632 2.644-.154 15.567-13.248 18.536-18.781 2.976-5.547 3.083-5.631 3.754-2.96.75 2.988 3.403 4.968 5.184 3.868 2.395-1.481 1.676-3.448-1.724-4.715l-3.5-1.304 3.5-.194c1.925-.107 3.83-.144 4.232-.082 1.204.185 2.052-4.738 1.453-8.43-.745-4.591 1.036-4.451 1.899.15 1.235 6.585-.126 15.792-3.16 21.366-8.252 15.162-27.243 26.177-57.924 33.597-40.524 9.801-54.821 15.104-64.334 23.861-8.453 7.781-10.457 17.118-5.815 27.087 3.818 8.199 14.423 15.936 20.973 15.301 3.16-.306 3.145-.327-2.936-4.047-11.759-7.193-17.57-16.151-15.396-23.734 2.802-9.768 12.133-17.207 28.678-22.86 3.393-1.16 17.568-5.003 31.5-8.54 26.246-6.663 37.048-10.565 49.204-17.771 16.662-9.878 27.195-27.971 25.17-43.237-.948-7.147-5.765-16.683-10.663-21.107-7.332-6.624-20.851-11.648-30.767-11.434-1.988.043-6.449 1.064-9.915 2.269m-95.71 9.641c3.581 3.738 5.48 4.355 9.129 2.966l2.882-1.098-4-2.423c-2.2-1.332-5.547-2.425-7.437-2.428l-3.437-.005zm93.44-.275-3.224 2.713 3.149.816c2.518.652 3.75.371 6.147-1.401 1.65-1.219 2.999-2.807 2.999-3.529 0-2.344-5.659-1.469-9.071 1.401M297 525v140.962l2.25.453c1.238.249 7.65.945 14.25 1.547 16.553 1.509 41.927 5.534 59.936 9.508 22.606 4.989 43.388 12.255 63.317 22.137 21.016 10.422 37.218 21.073 51.587 33.911 9.737 8.701 12.969 10.402 6.222 3.276-2.553-2.697-3.4-4.43-1.631-3.337.512.317 1.256.049 1.654-.595.424-.686.293-.904-.317-.528-.573.354-1.655-.112-2.405-1.037-.937-1.156-.973-1.446-.113-.93.688.413 1.25.319 1.25-.209s-2.812-3.364-6.25-6.303c-3.437-2.938-6.475-5.633-6.75-5.988s-1.08-.02-1.789.744c-1.335 1.438-.595 1.868 2.523 1.467.724-.093.99.479.643 1.382-.818 2.132-1.393 1.976-5.658-1.54-3.512-2.895-4.207-5.705-1.118-4.52 3.521 1.352.729-1.557-6.351-6.615-34.369-24.554-81.471-40.506-142.526-48.269-10.423-1.325-19.14-2.599-19.372-2.83-.231-.232-.107-59.476.277-131.653l.699-131.231 6.586.675c30.649 3.139 71.297 12.421 91.395 20.869 3.567 1.5 3.778 1.492 3.314-.122l-1.663-5.791-1.167-4.066-11.146-3.635c-24.455-7.976-50.144-13.542-74.647-16.174a5439 5439 0 0 1-18.75-2.038l-4.25-.482zm407-138.462c-26.494 3.267-52.265 8.927-73.926 16.235l-11.427 3.856-1.763 5.185c-.969 2.852-1.452 5.183-1.073 5.179s6.807-2.003 14.284-4.443c15.589-5.087 28.11-8.339 45.905-11.921 11.929-2.401 39.838-6.172 40.455-5.465.16.185.615 59.624 1.01 132.086l.718 131.75h-3.975c-10.762 0-52.041 6.697-71.708 11.634-27.623 6.933-58.04 19.619-79.204 33.033-10.032 6.358-33.758 25.558-34.84 28.193-.37.902-1.216 3.89-1.881 6.64l-1.209 5 5.567-5.392c39.776-38.529 98.782-61.892 176.067-69.711 8.525-.862 16.513-1.763 17.75-2.001l2.25-.434V385l-6.25.122c-3.437.067-10.975.704-16.75 1.416m-281.42 7.712c-1.166 5.722-1.252 8.131-.447 12.525.902 4.926 3.761 11.225 5.094 11.225 1.211 0 .931-1.221-1.264-5.515-1.459-2.854-1.566-3.417-.375-1.985 1.63 1.962 1.65 1.952 1.051-.5-.337-1.375-.618-2.864-.625-3.309s-.464-.531-1.014-.191-1 .141-1-.441.505-1.059 1.122-1.059q1.125.002-.189-1.581c-.722-.87-1.279-3.795-1.238-6.5.079-5.257-.369-6.33-1.115-2.669m168.117 2.143c-.409 1.041-.508 2.129-.221 2.417.913.912 1.715-.583 1.333-2.482-.35-1.74-.404-1.737-1.112.065M281.5 409.264l-4 5.18-.858 56.528c-.471 31.09-1.034 56.715-1.25 56.945a.54.54 0 0 1-.791 0c-.22-.23-.73-24.379-1.134-53.667-.405-29.288-1.013-53.231-1.351-53.207-.339.023-2.303 2.231-4.366 4.907l-3.75 4.865.015 130.342c.01 82.425.372 130.894.985 131.843.862 1.333.971 1.333.986 0 .025-2.237 4.713-7.383 5.277-5.792.615 1.734 1.578-16.936 2.227-43.208.724-29.274 1.646-47.197 2.39-46.454.341.341.859 19.459 1.151 42.484s.742 42.061 1 42.301c.258.239 2.044.714 3.969 1.054 3.094.548 3.239.486 1.25-.536-2.939-1.508-2.838-2.611.5-5.479l2.75-2.363.271-135.503c.149-74.527-.076-135.485-.5-135.461-.424.023-2.571 2.373-4.771 5.221M737 538.773c0 121.031.162 135.283 1.555 136.438.855.709 2.813 2.446 4.351 3.859l2.796 2.571.646-15.571c.355-8.563.678-27.045.719-41.07s.418-26.382.84-27.459c.897-2.293 1.6 9.877 3.175 54.959.766 21.928 1.48 32.227 2.268 32.72.696.436 1.355-.115 1.67-1.394.35-1.424.935-.108 1.789 4.03.698 3.379 1.702 6.144 2.23 6.144.61 0 .961-48.307.961-132.138V429.724l-3.973-4.31c-2.185-2.371-4.173-3.986-4.418-3.59s-.764 24.561-1.153 53.698c-.389 29.138-1.043 53.605-1.452 54.372-.409.766-1.072-24.659-1.473-56.5-.807-64.084-.355-60.033-7.461-66.831l-3.07-2.937zM582.663 414.065c-3.76 3.814-6.347 6.935-5.75 6.935s1.087-.477 1.087-1.059.489-.757 1.087-.387c1.411.872-.041 2.299-2.761 2.714-1.172.179-2.83.905-3.685 1.615-.854.709-1.972 1.03-2.484.714s-1.404-.004-1.984.694c-.761.918-.498 2.148.95 4.434 1.645 2.598 2.394 3.02 4.19 2.362 1.497-.55 2.286-1.795 2.5-3.945.233-2.333.812-3.142 2.25-3.142 1.066 0 1.937.675 1.937 1.5 0 2.212 2.102 1.824 2.71-.5.288-1.1 1.224-2 2.081-2 1.227 0 1.09-.498-.645-2.345-1.265-1.346-1.948-3.008-1.604-3.904.524-1.366.93-1.386 3.278-.161 1.474.769 3.437 1.4 4.363 1.404 2.197.008 3.495-3.949 1.674-5.104-1.894-1.2-2.857-1.096-2.857.31 0 .881-.296.904-1.113.087-1.742-1.742-.138-3.332 2.398-2.376 2.472.931 6.715-.272 6.715-1.904 0-1.09-4.22-3.057-6.315-2.942-.652.035-4.261 3.185-8.022 7M243.082 560.482l.071 150.482 4.173 1.093c2.296.601 8.674 2.38 14.174 3.953 11.047 3.161 24.53 6.635 30.88 7.957 2.266.472 11.77 2.952 21.12 5.512 29.226 8.002 35.803 9.619 37.107 9.118.695-.266 1.412-.041 1.593.502.376 1.13 18.728 6.122 20.277 5.516.563-.221-.986-.747-3.441-1.17-3.318-.572-3.969-.942-2.536-1.445 1.713-.601 1.635-.749-.694-1.334-1.441-.361-3.411-.961-4.377-1.332-1.303-.5-1.543-.327-.929.666.613.992.374 1.166-.918.67-.96-.369-2.496-.702-3.414-.74-1.323-.056-1.258-.231.315-.845 1.631-.637 1.288-.905-1.932-1.509-3.247-.61-13.06-3.356-30.82-8.626-1.682-.499-2.542-.454-2.191.114.318.515.101.936-.481.936s-1.059-.388-1.059-.861c0-.474-1.144-.643-2.542-.376-1.767.338-2.452.082-2.25-.841.197-.895-2.481-2.074-8.208-3.614-4.675-1.257-8.941-2.144-9.48-1.97-1.757.566-5.37-3.764-5.699-6.829-.196-1.831-.97-3.115-1.993-3.309-1.174-.222-1.542.221-1.237 1.492.834 3.466-.958 4.672-4.972 3.347-4.277-1.411-4.499-2.23-1.099-4.05 1.386-.742 2.174-1.655 1.75-2.03s-4.755-1.66-9.625-2.856c-9.131-2.242-11.645-1.896-11.645 1.599 0 1.577-3.049 1.216-9.964-1.18-3.29-1.141-3.378-1.276-1.271-1.946 1.291-.411 1.973-1.192 1.585-1.818-.442-.715-.07-.864 1.068-.428.96.369 2.82.67 4.132.67 1.657 0 2.22.437 1.84 1.427-.404 1.052.016 1.28 1.597.866 2.718-.711 1.601-1.83-3.487-3.493l-4-1.307-.5-24.996-.5-24.997-2.5-.351c-1.375-.193-2.838-.868-3.251-1.5-.883-1.352-.677-116.519.247-137.649.419-9.578.697-11.889.819-6.809.102 4.23.635 7.969 1.185 8.309s1.032.029 1.07-.691.414-.43.835.644c.831 2.126 2.095-41.242 2.095-71.896v-19.118l7.5-6.307c4.125-3.47 7.5-6.494 7.5-6.72 0-.227-5.847-.412-12.994-.412h-12.995zm184.654-149.226c-.737 1.937 1.098 5.964 2.362 5.183.798-.493.759-.909-.137-1.463-.689-.426-.982-1.48-.65-2.343s.218-1.806-.25-2.095-1.064.033-1.325.718M759 414.015c2.475 2.176 5.892 4.936 7.594 6.133l3.094 2.177.598 33.087c.446 24.701.946 33.916 1.972 36.355 1.907 4.528 2.712 3.098 2.919-5.184.098-3.896.493.792.878 10.417.864 21.569 1.141 149.669.33 152.693-.385 1.435-1.505 2.3-3.237 2.5l-2.648.307v49.177l-3.5 1.651c-2.801 1.321-3.001 1.579-1 1.29 1.375-.198 3.361-.72 4.414-1.159 1.268-.529 1.692-.439 1.256.266-.362.586.09 1.353 1.006 1.704.915.351 2.031.061 2.479-.645.571-.9.819-.663.83.794.012 1.682-.954 2.302-5.061 3.25-7.035 1.624-8.551 1.488-10.841-.969l-1.995-2.142-10.706 2.838c-5.888 1.56-10.07 3.033-9.294 3.272.777.239 2.167 1.091 3.09 1.894.986.857 2.636 1.22 4 .879 1.277-.318.812.112-1.034.957-1.846.844-4.599 1.784-6.117 2.088-2.347.469-2.858.163-3.413-2.047-1.01-4.025-2.292-3.081-2.993 2.204-.571 4.3-.984 4.927-3.95 6-4.19 1.515-6.886 1.629-4.671.198 1.329-.859 1.328-.971-.016-.985-2.361-.024-28.421 6.655-38.984 9.991-5.225 1.65-11.49 3.487-13.922 4.082-3.377.826-4.086 1.317-3 2.078 1.023.716.626.821-1.412.375-1.819-.399-2.607-.254-2.2.404.405.655-.409.816-2.253.448-1.962-.393-3.416-.048-4.542 1.078-.91.911-2.139 1.358-2.73.993s-1.649.122-2.351 1.082c-.838 1.146-2.134 1.583-3.767 1.271-1.643-.314-2.49-.024-2.49.854 0 .731.263 1.325.584 1.32.722-.012 14.952-3.737 29.583-7.744a7013 7013 0 0 1 30.5-8.23c10.725-2.87 20.259-5.624 21.187-6.119.927-.495 3.402-1.118 5.5-1.384 3.496-.443 28.803-6.972 42.563-10.981l5.75-1.675V410l-13.25.03-13.25.03zm-326.274 6.235c.871.962 1.687 1.75 1.812 1.75.126 0 .435-.788.686-1.75.337-1.287-.142-1.75-1.812-1.75-2.098 0-2.15.132-.686 1.75M587 422.417c0 .871.712 1.583 1.583 1.583 1.766 0 1.459-2.153-.395-2.771-.654-.218-1.188.317-1.188 1.188m23.91 2.931c-3.922 5.448-17.101 17.082-23.796 21.006-3.422 2.005-6.367 3.646-6.545 3.646-.179 0-1.962.684-3.964 1.52l-3.639 1.521 4.029 5.336c2.215 2.935 5.256 8.213 6.757 11.729 2.439 5.717 2.729 7.612 2.738 17.894.01 11.487.005 11.51-4.191 20.089-3.252 6.65-5.665 9.959-10.685 14.656-3.567 3.336-7.864 6.88-9.549 7.876-1.686.996-3.065 2.141-3.065 2.544 0 .404 1.273 2.67 2.829 5.035 9.474 14.4 10.641 31.28 3.166 45.77-1.997 3.872-3.015 5.025-11.298 12.797l-5.613 5.267 2.414 3.559c1.329 1.957 2.692 4.431 3.031 5.497.338 1.067 1.013 1.693 1.499 1.392.487-.3.601-1.285.255-2.188-.463-1.205-.211-1.48.946-1.037 2.388.917 2.98-.369 1.118-2.426-1.601-1.769-.947-1.835 19.248-1.946 21.06-.116 24.564-.018 25.316.707.639.616-3.088 4.41-4.316 4.393-.602-.009-.42-.501.405-1.095 1.204-.866 1.106-.938-.5-.365-1.1.392-2.565.735-3.256.761s-1.14.749-1 1.607c.16.972-.497 1.568-1.744 1.583-1.303.016-2.111.808-2.32 2.274-.175 1.237-.722 2.25-1.214 2.25-.493 0-1.427 1.013-2.076 2.25l-1.181 2.25 2.291-2 2.291-2-1.111 2c-1.321 2.379-20.664 22.5-21.629 22.5-.368 0-.348-.52.044-1.155q.72-1.16-.69-.351c-2.546 1.456-5.905 4.835-5.905 5.94 0 .597-.9 1.647-2 2.334s-2 1.674-2 2.193 1.125-.099 2.5-1.373 2.5-2.663 2.5-3.085c0-1.092 4.22-4.616 4.815-4.022.271.272-2.708 3.762-6.622 7.757s-8.895 9.172-11.07 11.506l-3.956 4.244 2.121 5.021c1.167 2.762 2.372 4.902 2.678 4.756.472-.225 27.202-27.787 60.384-62.265 6.886-7.155 8.855-8.698 9.602-7.528.807 1.262 1.034 1.228 1.599-.244.362-.944 1.069-1.463 1.57-1.153s.61 1.052.241 1.649c-.387.625-.208.799.421.41.6-.371 5.696 2.572 11.324 6.539s9.732 7.381 9.119 7.585-.879.983-.592 1.73c.552 1.439-2.929 3.884-4.003 2.81-.347-.347-.631-.121-.631.503 0 .967-5.596 4.536-21.71 13.845-1.765 1.02-12.898 7.579-24.739 14.577-11.84 6.998-22.096 12.584-22.79 12.414s-.89-.109-.438.135c.985.53-3.422 3.569-12.431 8.572l-6.609 3.67-.643 6.158c-.354 3.386-.457 6.344-.229 6.572.228.229 12.717-6.89 27.752-15.818 27.194-16.148 38.618-22.888 65.337-38.546 7.7-4.512 15.462-9.413 17.25-10.89l3.25-2.687.22-50.651c.164-37.57.365-44.97.78-28.652.307 12.1.716 21.325.907 20.5.732-3.154.963-7.106 1.549-26.5.332-11 .92-25.175 1.307-31.5l.702-11.5.534 12c.294 6.6.174 12.261-.266 12.58s-.469 1.444-.063 2.5c1.478 3.846 2.129-2.795 2.215-22.58.082-18.903-.446-23.007-2.773-21.569-.612.378-1.112.21-1.112-.372s.675-1.059 1.5-1.059c.833 0 1.5-.889 1.5-2s-.667-2-1.5-2c-1.081 0-1.5-1.107-1.5-3.965 0-2.95-.515-4.24-2.013-5.042-1.607-.86-1.806-1.463-.987-2.993.82-1.532.618-2.134-1.008-3.004-1.118-.599-2.443-.835-2.944-.526s-1.192.105-1.538-.454c-.345-.559-.039-1.03.681-1.048.869-.021.721-.478-.441-1.36-.962-.731-1.75-1.774-1.75-2.319s-1.41-2.07-3.133-3.389c-1.724-1.32-4.244-3.353-5.601-4.518-1.356-1.165-4.109-2.999-6.116-4.075-5.409-2.901-8.588-4.745-9.15-5.307-1.635-1.635-9.002-7-9.613-7-1.344 0-4.255-3.174-3.983-4.344.147-.636.079-.819-.151-.406-.231.413-1.534.75-2.895.75-1.396 0-2.206-.436-1.858-1 1.487-2.405-.399-.696-2.59 2.348m-202.47-.445c.307.496-.679 1.347-2.191 1.891s-3.743 1.938-4.957 3.098c-1.215 1.159-2.569 2.108-3.01 2.108s-1.363.9-2.05 2-1.92 2-2.74 2-1.492.45-1.492 1-.649 1-1.443 1-2.144 1-3 2.223-1.557 1.641-1.557.931c0-.875-.934-.625-2.904.778-1.598 1.137-3.328 2.068-3.845 2.068s-1.756.9-2.751 2-2.167 2-2.603 2c-1.917 0-5.897 4.931-5.897 7.306 0 2.991-1.548 4.314-3.324 2.84-.936-.777-1.188-.371-1.038 1.664.11 1.479.236 2.818.281 2.975.044.157.981-.196 2.081-.785 2.99-1.6 2.417-.681-1.25 2.003-1.788 1.309-2.691 1.689-2.009.846 1.209-1.492.776-2.849-.908-2.849-.458 0-.721.563-.583 1.25.137.688-.323 1.134-1.023.992-.713-.144-1.539 1.067-1.875 2.75-.331 1.654-1.026 3.008-1.544 3.008-.519 0-.658.897-.31 1.994.468 1.474.257 1.849-.81 1.44-2.022-.776-2.602 6.99-2.579 34.566.013 14.813.476 24.721 1.357 29 .946 4.593 1.367 5.547 1.436 3.25.054-1.788.548-3.25 1.098-3.25.608 0 1 4.48 1 11.441 0 6.847.418 11.699 1.041 12.084.572.354.787 1.442.477 2.418s-.216 2.626.209 3.666c.472 1.154.989-2.201 1.327-8.609.305-5.775.643 6.634.75 27.576l.196 38.075 2.25 2.082c1.238 1.144 9.675 6.444 18.75 11.778 24.765 14.554 53.343 31.504 73.582 43.644C466.526 687.12 474.986 692 475.381 692c1.287 0-.608-12.468-2.022-13.3-.747-.44-1.359-1.438-1.359-2.218 0-.783-.607-1.186-1.354-.9-1.754.673-29.694-15.695-28.923-16.943.322-.522.133-.668-.421-.326-.553.342-7.71-3.408-15.904-8.335-8.194-4.926-16.36-9.72-18.148-10.653s-3.25-2.314-3.25-3.069c0-.756-.438-1.103-.973-.773-1.171.724-17.027-8.244-17.027-9.63 0-.534-.45-.693-1-.353s-1 .115-1-.5-.399-.871-.887-.57c-.487.301-1.485-.235-2.217-1.191-.731-.956-.954-1.423-.494-1.037s1.458.081 2.217-.678c2.002-2.002 1.693-2.762-.619-1.524-4.392 2.351-1.517-.155 7.75-6.753 12.67-9.022 11.92-8.688 15.044-6.678l2.706 1.741-1.905-2.155c-1.048-1.185-1.554-2.155-1.125-2.155 1.588 0 10.554 10.153 9.9 11.211-.374.604-.233.822.313.485s2.681 1.117 4.746 3.232c2.065 2.114 3.376 4.047 2.913 4.294-.463.248-.302.322.359.164 1.063-.253 41.858 41.032 48.778 49.364 1.484 1.788 3.049 3.25 3.476 3.25s1.665-2.337 2.75-5.193l1.973-5.193-10.589-10.925c-5.824-6.01-10.476-11.323-10.339-11.808s-.355-.881-1.095-.881c-2.025 0-5.471-4.182-3.899-4.732 1.771-.619.502-2.268-1.745-2.268-2.315 0-15.471-13.396-15.618-15.903-.059-1.004-.418-2.329-.798-2.944s-.4-2.676-.043-4.58c.462-2.463 1.269-3.581 2.799-3.88 1.182-.232.236-.482-2.101-.557S432 606.55 432 606c0-.778 36.851-1.786 41.22-1.128.396.059 1.22-.826 1.831-1.967.973-1.818.574-2.525-3.22-5.707-10.424-8.742-13.691-13.591-16.475-24.449-2.313-9.021-1.366-17.712 2.932-26.925 1.88-4.028 4.634-8.612 6.12-10.185 1.487-1.574 2.565-2.933 2.397-3.02-4.223-2.193-13.073-9.221-17.135-13.608-9.994-10.796-14.877-26.416-12.219-39.09 1.718-8.195 5.264-16.141 9.898-22.18 2.008-2.617 3.651-4.926 3.651-5.131s-1.947-.863-4.327-1.462c-6.449-1.624-18.781-10.16-27.695-19.17-4.341-4.388-8.613-7.978-9.494-7.978s-1.351.406-1.044.903M441.5 426c.34.55 1.068 1 1.618 1s.722-.45.382-1-1.068-1-1.618-1-.722.45-.382 1m88.151 16.468c-.31.807-.133 1.734.393 2.059s.956.376.956.114c0-.263.273-1.189.607-2.059s.157-1.582-.393-1.582-1.254.661-1.563 1.468m-157.144 15.521c-.35.566.051.734.941.393 1.732-.665 2.049-1.382.611-1.382-.518 0-1.216.445-1.552.989m183.493.562c-1.925.746-5.75 2.039-8.5 2.874-3.006.913-3.804 1.387-2 1.188 1.65-.181 3.743-.65 4.65-1.04 1.209-.521 1.61-.224 1.5 1.108-.103 1.253.473 1.764 1.85 1.643 1.729-.152 1.792-.017.464 1-.845.647-1.39 1.883-1.212 2.746.533 2.571-5.751 4.008-9.347 2.137-2.682-1.395-2.589-1.167 1.213 2.975 10.109 11.014 7.84 22.658-6.313 32.394-3.403 2.341-13.32 7.002-23.3 10.951-28.007 11.082-40.506 19.638-46.549 31.864-3.114 6.302-3.652 8.394-3.689 14.351-.054 8.626 3.008 15.972 9.579 22.976 5.977 6.372 10.01 8.763 11.583 6.868.925-1.115.021-2.46-4.53-6.739-6.949-6.535-10.376-13.329-10.389-20.597-.006-2.905.445-5.25 1.009-5.25.588 0 .753 1.058.392 2.5-.403 1.605-.207 2.5.548 2.5.767 0 1.065 1.48.858 4.25-.294 3.938-.08 4.36 2.911 5.75 1.776.825 3.238 2.063 3.25 2.75.012.688.832 1.25 1.822 1.25s2.398.563 3.129 1.25c1.095 1.03 1.205.721.626-1.75-.387-1.65-1.078-3.136-1.536-3.303-.459-.166-1.785-1.127-2.947-2.135-1.763-1.529-1.861-1.929-.593-2.416 2.156-.827 1.884-2.396-.548-3.168-1.925-.611-1.949-.744-.344-1.918 1.02-.746 1.518-2.049 1.22-3.19-.277-1.061.102-2.496.844-3.189s1.365-2.255 1.385-3.47c.038-2.321 4.478-8.53 5.424-7.584.966.966-2.567 6.925-3.693 6.229-.653-.403-.785-.194-.335.533.407.659.313 1.741-.209 2.405-.523.663-.862 2.219-.754 3.456s-.226 2.25-.743 2.25-.681.675-.364 1.5c.316.825.027 1.507-.643 1.515-.794.01-.713.336.233.934.799.506 1.772.722 2.162.481s1.013 1.363 1.385 3.566 1.087 4.004 1.589 4.004.912.702.912 1.559.399 1.312.887 1.011c.487-.301 1.442.122 2.122.941 2.501 3.013 2.853 1.375.462-2.148-5.372-7.917-5.358-15.779.042-22.196 3.928-4.668 15.121-10.692 31.642-17.03 20.354-7.808 25.588-10.209 32.521-14.917 23.57-16.006 28.009-40.318 11.036-60.447-4.28-5.075-5.209-5.355-10.712-3.222M535.5 465c-.34.55-.141 1 .441 1s1.059-.45 1.059-1-.198-1-.441-1-.719.45-1.059 1m132.579 5.583c.048 1.165.285 1.402.604.605.289-.722.253-1.585-.079-1.917s-.568.258-.525 1.312m-152.441.917c-.643 1.677-3.289 2.037-3.805.518-.201-.595-1.518-.665-3.333-.179l-3 .803-.272 18.795c-.217 14.92-.011 18.677 1 18.227.699-.311 3.852-1.601 7.005-2.865l5.733-2.299.017-17.25c.014-14.086-.239-17.25-1.376-17.25-.766 0-1.652.675-1.969 1.5m-56.917 4.215c.372.97.21 1.36-.407.979-.631-.39-.851.279-.572 1.738.354 1.852 1.223 2.462 3.96 2.781 6.169.721 4.885-3.685-1.869-6.412-1.317-.532-1.583-.313-1.112.914m70.926 7.936c-1.435 16.977-.752 18.222 6.311 11.504 3.342-3.18 4.042-4.505 4.042-7.655s-.7-4.475-4.042-7.655c-2.223-2.115-4.407-3.845-4.853-3.845-.447 0-1.103 3.443-1.458 7.651m-39.251-4.605c-1.693 1.072-3.918 3.508-4.944 5.413-2.492 4.628-1.278 7.927 4.556 12.381l4.492 3.429.285-10.16c.35-12.468-.156-13.743-4.389-11.063m-32.874 5.575c-1.055 1.055-1.135 2.217-.35 5.122.557 2.066 1.397 4.159 1.865 4.651 1.377 1.447 6.963-1.373 6.963-3.515 0-2.271-.657-2.365-2.643-.379-1.964 1.964-4.357 1.919-4.357-.083 0-.871.553-1.399 1.228-1.174 1.578.526 5.172-2.786 4.393-4.047-1.015-1.642-5.656-2.018-7.099-.575M667.158 486c0 1.375.227 1.938.504 1.25.278-.687.278-1.812 0-2.5-.277-.687-.504-.125-.504 1.25M464 496.003c-.825.532-2.539.973-3.809.982-1.27.008-2.051.432-1.737.941.349.564 1.815.571 3.743.017 4.34-1.244 4.795-.32 1.264 2.565-3.452 2.821-2.551 3.249 1.635.776 3.284-1.939 3.394-2.246 1.654-4.574-.892-1.193-1.68-1.396-2.75-.707m1.64 7.271c-1.696 1.24-1.706 1.426-.146 2.721 1.902 1.579 5.006.283 5.006-2.09 0-1.896-2.658-2.241-4.86-.631M473.5 510c-.34.55.084 1 .941 1s1.559-.45 1.559-1-.423-1-.941-1-1.219.45-1.559 1m188.772 6c0 2.475.195 3.487.434 2.25.238-1.237.238-3.263 0-4.5-.239-1.237-.434-.225-.434 2.25m-109.209.02c-1.891 1.616-3.222 3.155-2.957 3.419.264.264 2.23-1.077 4.369-2.979 4.712-4.193 3.44-4.589-1.412-.44m-7.389 5.261c.29.469-.088.712-.839.539-1.749-.401-23.835 8.307-23.835 9.398 0 .899 4.461.038 7.271-1.403.974-.499 2.154-.67 2.623-.38.88.543 13.193-5.175 16.423-7.627 1.738-1.319 1.73-1.379-.176-1.379-1.097 0-1.757.383-1.467.852m-40.463 16.257c-.71.804-.877 1.462-.373 1.462s1.477-.675 2.162-1.5c1.604-1.932-.083-1.897-1.789.038m42.799 4.09c.005 1.03 1.093 4.2 2.418 7.045 6.345 13.628 3.744 26.74-7.582 38.218-4.368 4.426-8.164 6.772-24.632 15.22-13.709 7.032-20.462 12.214-20.734 15.909-.08 1.089-.078 1.98.005 1.98.084 0 1.921-1.575 4.083-3.5s10.007-6.71 17.432-10.633c26.551-14.027 32.475-18.528 37.54-28.526 2.525-4.983 2.956-6.965 2.934-13.494-.024-6.745-.439-8.453-3.5-14.4-3.692-7.172-7.983-11.384-7.964-7.819m-52.138 1.122c-1.243 1.586-1.208 1.621.378.378.962-.755 1.75-1.543 1.75-1.75 0-.823-.821-.294-2.128 1.372m-117.104-.125c-.958 1.474-3.041 20.22-2.425 21.826.262.683.123 3.673-.309 6.645-.672 4.628-.817 3.68-1.009-6.596-.123-6.6-.591-13.125-1.038-14.5-.455-1.398-.829 11.508-.847 29.276-.019 17.477.35 31.539.819 31.249s.638-1.35.375-2.357c-.263-1.006-.06-3.368.452-5.249l.931-3.419.753 4.74c.415 2.607 1.184 4.474 1.709 4.15.525-.325.698-.846.385-1.159-.967-.967 2.543-4.127 3.975-3.578 1.399.537 9.826-4.735 11.057-6.916.542-.962.398-.959-.649.013-.741.688-2.045 1.243-2.897 1.235-1.365-.014-1.371-.129-.05-.964 1.43-.903 1.669-2.744 2.144-16.521l.138-4 1.314 3c1.848 4.219 1.649 2.108-.517-5.5-1.753-6.156-1.872-6.315-2.248-3l-.397 3.5-1.269-4.301c-1.089-3.69-1.565-4.207-3.355-3.639-1.85.588-2.025.342-1.544-2.173.411-2.149-.04-3.375-1.862-5.063-2.542-2.356-3.262-6.313-1.154-6.339.944-.012.959-.2.064-.77-.652-.414-1.327-2.995-1.5-5.734-.173-2.74-.643-4.475-1.046-3.856m112.104 3.125c-1.269 1.619-1.222 1.64.628.283 1.1-.807 2.188-1.594 2.417-1.75s-.054-.283-.628-.283-1.662.788-2.417 1.75m152.675 6-.755 8.25-3.146.079c-1.73.043-2.583.306-1.896.583.688.278 1.25.965 1.25 1.528s-.675.765-1.5.448c-.825-.316-1.551-.027-1.614.643-.388 4.145-.864 6.512-1.752 8.719-.971 2.409-1.012 2.372-1.142-1-.119-3.103-.349-2.763-2.028 3-1.042 3.575-1.91 7.063-1.929 7.75-.053 1.891 1.751 1.497 2.293-.5.261-.962.423-.288.361 1.5-.063 1.788-.427 3.25-.808 3.25s-.486.794-.232 1.764c.253.971.015 2.883-.531 4.25l-.991 2.486-.064-2.75c-.034-1.513-.483-2.75-.996-2.75-1.208 0-2.379 3.685-1.582 4.976 1.448 2.343 13.667 10.157 16.221 10.373 1.959.166 2.711.724 2.517 1.868-.152.898.089 1.858.536 2.134s.87-.252.941-1.174c.333-4.354.78-5.998 1.508-5.549.435.27.871-.999.969-2.819s.467-.159.823 3.691c.358 3.869.726-7.05.823-24.417.098-17.279-.041-31.198-.308-30.932-.266.267-.566 8.779-.666 18.917s-.313 17.982-.473 17.432c-.161-.55-.987-8.425-1.837-17.5-2.05-21.884-2.987-25.227-3.992-14.25M542.5 548c-.782 1.266.542 1.266 2.5 0 1.293-.835 1.266-.971-.191-.985-.93-.008-1.969.435-2.309.985m-25.5 4.059c0 .582-.401.811-.891.508-.491-.303-2.966.367-5.5 1.488L506 556.094v11.953c0 13.596.006 13.603 7.304 8.975l4.696-2.978v-11.522c0-6.337-.225-11.522-.5-11.522s-.5.477-.5 1.059m27.53 2.191c-.763 2.341-.034 5.823 1.406 6.711 1.199.741 1.217 1.15.107 2.487-1.679 2.024-.856 2.85 2.951 2.963 3.607.107 4.138-2.505.961-4.73-1.722-1.206-1.801-1.526-.5-2.025 1.988-.763 1.976-3.082-.026-5.085-1.887-1.886-4.337-2.047-4.899-.321m-8.03 9.855v7.104l-5.567 5.182c-3.72 3.462-10.23 7.604-19.624 12.484-15.966 8.294-24.583 14.76-29.146 21.871-7.642 11.909-5.58 26.79 5.139 37.091 3.826 3.676 6.38 2.684 2.987-1.161-3.19-3.616-5.032-7.071-6.621-12.424-2.105-7.086-.433-14.875 4.722-22.002 2.089-2.888 4.346-5.25 5.015-5.25.67 0 2.269.979 3.554 2.177l2.336 2.176 2.839-3.176c1.561-1.748 3.712-3.177 4.78-3.177s2.597-.654 3.396-1.452c.798-.799 1.646-1.259 1.884-1.021.237.237 1.977-.859 3.867-2.437l3.435-2.868-2.41-1.951c-1.677-1.358-2.049-2.176-1.224-2.686.653-.404 1.064-.363.913.091-.322.964 3.831 5.324 5.07 5.324.465 0 1.662-.903 2.661-2.006.998-1.104 2.031-1.79 2.295-1.526.633.633 6.199-2.674 6.199-3.684 0-.431-.503-.672-1.117-.534-.615.138-1.25-.538-1.412-1.5-.369-2.197 1.131-2.284 2.333-.136 1.265 2.261 4.631.989 7.299-2.759 1.918-2.694 1.99-3.191.65-4.53s-1.875-1.317-4.879.206l-3.374 1.711 2.697-2.871c3.803-4.049 5.806-9.442 5.788-15.589-.017-5.919-1.382-9.217-2.864-6.919-.58.899-1.005.984-1.25.25-.204-.612-.371 2.084-.371 5.992m-149 .895c.34.55 1.041 1 1.559 1s.941-.45.941-1-.702-1-1.559-1-1.281.45-.941 1m249.5.031c0 .533.675.969 1.5.969s1.5-.177 1.5-.393-.675-.652-1.5-.969-1.5-.139-1.5.393m-92.397 4.134c.225.365-.147.85-.826 1.076-.733.244-.115 1.146 1.519 2.217 2.646 1.734 2.833 1.735 4.73.019 3.248-2.94 2.512-4.563-1.929-4.251-2.147.151-3.719.573-3.494.939m-2.537 6.256c-.973 1.171-.707 1.768 1.405 3.152 2.478 1.624 2.672 1.615 4-.183 1.219-1.652 1.183-1.935-.288-2.248-.926-.196-2.186-.764-2.8-1.262-.702-.568-1.564-.367-2.317.541m-181.987 10.162c.048 1.165.285 1.402.604.605.289-.722.253-1.585-.079-1.917s-.568.258-.525 1.312m171.546-.381c.307.497 1.08.716 1.717.486s1.946-.013 2.908.482c1.119.576 1.75.527 1.75-.135 0-1.149-.312-1.263-4.217-1.542-1.494-.107-2.465.213-2.158.709m96.454.381c.048 1.165.285 1.402.604.605.289-.722.253-1.585-.079-1.917s-.568.258-.525 1.312m-101.368 1.269c-2.448 1.614-2.601 1.995-1.25 3.116 1.286 1.067 1.539.987 1.539-.485 0-.97.788-2.36 1.75-3.091 2.606-1.978 1.166-1.653-2.039.46m-129.632 5.731c.048 1.165.285 1.402.604.605.289-.722.253-1.585-.079-1.917s-.568.258-.525 1.312m-3.476 1.25c-.283.459.12.834.897.834s1.18-.375.897-.834-.687-.833-.897-.833-.614.375-.897.833m117.907 4.183c.346.559 1.047.758 1.559.441 1.387-.857 1.129-1.457-.628-1.457-.857 0-1.276.457-.931 1.016m-10.431 4.567c.048 1.165.285 1.402.604.605.289-.722.253-1.585-.079-1.917s-.568.258-.525 1.312m95.171.106c.962.252 2.538.252 3.5 0 .962-.251.175-.457-1.75-.457s-2.712.206-1.75.457M379.5 606c-.34.55-.168 1 .382 1s1.278-.45 1.618-1 .168-1-.382-1-1.278.45-1.618 1m42.5-.059c0 .518.375 1.173.833 1.456.459.283.834-.14.834-.941s-.375-1.456-.834-1.456-.833.423-.833.941m49.5-.45c-.55.184-2.238.607-3.75.941s-2.75 1.074-2.75 1.646.498.732 1.107.356c.745-.461.887.011.433 1.441-.4 1.261-.241 2.125.393 2.125.587 0 1.085 1.013 1.106 2.25.032 1.825.332 1.589 1.589-1.25 2.054-4.64 3.375-8.019 3.097-7.921-.124.043-.675.229-1.225.412m-41.865 3.29c-.277.448-.145 1.393.292 2.101.621 1.004.925.946 1.39-.266.629-1.64-.823-3.224-1.682-1.835m63.908.15c-.317.512-.118 1.213.441 1.559s1.016-.074 1.016-.931c0-1.757-.6-2.015-1.457-.628m42.645 1.273c.469 2.451-1.403 5.235-2.68 3.986-.388-.38-.596.885-.461 2.81.399 5.724.091 6.99-1.547 6.362-1.194-.458-1.5.325-1.5 3.835 0 3.15-.818 5.683-2.859 8.857-3.457 5.376-5.206 6.944-16.141 14.469-20.258 13.941-25.371 20.585-25.38 32.977-.004 4.872.554 8.064 1.836 10.5 2.681 5.098 6.548 9.935 8.949 11.193 2.009 1.053 2.025 1.019.383-.834-4.913-5.546-6.262-16.549-2.849-23.24 1.067-2.091 3.954-5.786 6.416-8.21 4.598-4.53 5.823-5.357 21.063-14.222 17.105-9.95 24.558-19.259 24.567-30.687.005-6.768-1.304-11.693-4.281-16.111-2.844-4.22-6.196-5.245-5.516-1.685m-46.598 2.423c-.58 1.51 1.762 4.263 3.691 4.341 1.787.073 1.854-3.152.094-4.484-2.438-1.847-3.03-1.824-3.785.143m66.048 3.873c.317.825.753 1.5.969 1.5s.393-.675.393-1.5-.436-1.5-.969-1.5-.709.675-.393 1.5M530 617c0 .55.477 1 1.059 1s.781-.45.441-1-.816-1-1.059-1-.441.45-.441 1m4.507-.011c-.35.566.051.734.941.393 1.732-.665 2.049-1.382.611-1.382-.518 0-1.216.445-1.552.989M416 617.902c0 1.038 1.902 2.541 2.466 1.948.183-.192-.297-.93-1.067-1.639-.769-.71-1.399-.849-1.399-.309m70 .398c0 1.628 2.013 3.7 3.593 3.7 1.762 0 2.682-3.209 1.191-4.155-1.983-1.258-4.784-.992-4.784.455m29.637 1.538c-.475.736-.88 4.454-.899 8.262-.021 3.961-.579 7.668-1.305 8.661-1.075 1.47-1.274.762-1.299-4.628-.017-3.5-.167-6.484-.332-6.631-.166-.148-1.314.114-2.552.582-2.059.779-2.25 1.491-2.25 8.384 0 8.709.618 9.111 6.292 4.098l3.792-3.351-.292-8.357c-.18-5.155-.623-7.845-1.155-7.02m-29.895 4.822c.923.372.967 1.015.173 2.499-1.398 2.611-.48 4.841 1.991 4.841 1.417 0 1.93-.631 1.83-2.25-.077-1.237-.612-2.587-1.188-3-.689-.493-.534-1.087.452-1.735 1.153-.757.806-.97-1.5-.921-1.65.035-2.441.29-1.758.566m16.542 37.218c-6.155 4.876-7.227 6.234-7.026 8.902.162 2.143.224 2.132 3.008-.535 1.711-1.639 2.659-3.424 2.382-4.484-.254-.969-.053-1.761.446-1.761.498 0 .924.563.946 1.25s.711.013 1.532-1.5 1.729-2.75 2.019-2.75.249.45-.091 1c-1.099 1.778 1.004 1.06 2.701-.922 3.187-3.721-.909-3.167-5.917.8m27.812 8.372c.243 6.665.073 7.559-1.096 5.75-1.68-2.599-1.119.624 1.078 6.198 2.461 6.243 2.077 10.717-1.603 18.658-1.361 2.938-2.475 5.614-2.475 5.946 0 1.488 8.371-7.693 10.14-11.12 4.06-7.868 3.045-20.363-2.195-27.024-2.953-3.755-4.028-3.311-3.849 1.592m-3.846-2.03c-2.662 1.284-2.876 3.015-.606 4.9 1.462 1.213 1.565 1.115.933-.878-.4-1.26-.291-2.242.249-2.242.528 0 1.219-.675 1.536-1.5s.477-1.47.357-1.432c-.121.037-1.232.556-2.469 1.152m-12.865 7.994c-7.057 5.417-6.701 3.48-5.928 32.246.384 14.278 1.129 26.766 1.655 27.75 1.113 2.079 4.172 2.358 5.698.519 1.066-1.285 3.003-62.729 1.977-62.729-.285 0-1.815.996-3.402 2.214M288 678c0 .55 1.088 1 2.418 1 3.452 0 5.582.995 5.582 2.607 0 1.683-1.678 1.86-2.22.233-.273-.818-.919-.862-2.193-.149-1.733.97-1.73 1.042.054 1.767 1.8.733 1.799.779-.045 1.466-1.371.512.449 1.352 6.5 3.001 4.622 1.26 10.571 2.963 13.219 3.785 2.648.821 5.036 1.273 5.306 1.003.49-.491-5.242-2.405-15.621-5.216l-5.5-1.489 4.623.246c3.629.193 4.507-.057 4.082-1.162-.43-1.122.256-1.284 3.377-.798 3.786.589 3.834.561 1.418-.815-2.346-1.336-2.192-1.386 2.5-.811 5.812.713 7.084 1.313 2.917 1.376-2.749.041-2.686.127 1.083 1.485 2.2.792 5.575 1.432 7.5 1.421l3.5-.021-2.5-1.484c-2.414-1.432-2.345-1.465 2-.956 2.475.291 9.192 1.199 14.926 2.02 5.735.82 10.783 1.491 11.219 1.491s.533.675.217 1.5-.051 1.5.59 1.5.896.437.566.971c-.667 1.08-.025 1.248 13.482 3.521 33.967 5.717 81.671 23.756 107.319 40.582l6.181 4.055-4-3.59c-2.2-1.975-9.369-7.255-15.932-11.734-24.871-16.975-59.764-31.336-91.568-37.687-34.307-6.851-81-12.107-81-9.118m223.655.829c-2.061 2.277-2.132 3.568-.155 2.809.93-.356 1.5.005 1.5.952 0 .9-.474 1.235-1.155.815-.714-.442-.883-.275-.442.438.392.634.908 3.475 1.146 6.313.627 7.461 1.451 7.254 1.451-.364 0-3.598.281-7.948.625-9.667.706-3.529-.481-4.047-2.97-1.296m195.28.214c-4.71.42-17.535 2.197-28.5 3.949-54.766 8.751-95.083 24.908-128.185 51.371-7.551 6.036-8.173 7.206-1.147 2.158 2.807-2.016 11.019-6.776 18.25-10.578s12.472-6.932 11.647-6.958c-1.228-.037-1.198-.222.167-1.018.916-.535 2.491-.859 3.5-.72s6.108-1.389 11.333-3.396 12.875-4.852 17-6.323c10.809-3.855 12.18-4.52 8-3.882-3.459.528-3.471.517-.982-.876 1.384-.776 4.534-1.3 7-1.165 2.465.134 8.082-.684 12.482-1.82 4.4-1.135 13.625-3.058 20.5-4.273 7.005-1.238 12.407-2.664 12.289-3.243-.116-.569 1.151-1.307 2.816-1.64s2.766-1.028 2.447-1.545c-.32-.517.213-1.164 1.183-1.438 5.497-1.55 42.236-6.008 43.024-5.221.262.263-.589.707-1.891.987-5.644 1.215-6.068 1.497-1.618 1.076 2.744-.26 4.75-.035 4.75.531 0 .54 1.152.981 2.559.981s2.293.43 1.968.956-1.364.685-2.309.353c-1.319-.463-1.455-.318-.586.626.892.968 2.594.803 8-.773 3.777-1.102 6.006-2.039 4.951-2.083-1.054-.043-1.59-.405-1.191-.804s-.763-1.226-2.581-1.839l-3.306-1.113 2.997-1.621c2.936-1.588 2.8-1.62-6.502-1.523-5.225.055-13.354.444-18.065.864M286.5 684c-.34.55-.141 1 .441 1s1.059-.45 1.059-1-.198-1-.441-1-.719.45-1.059 1m444.313.683c.721.289 1.584.253 1.916-.079s-.258-.568-1.312-.525c-1.165.048-1.402.285-.604.604M704.5 686c-1.928.829-1.921.862.191.93 1.205.038 2.469-.38 2.809-.93.731-1.183-.248-1.183-3 0m-5.75.662c.688.278 1.813.278 2.5 0 .688-.277.125-.504-1.25-.504s-1.937.227-1.25.504m-378.937 2.021c.721.289 1.584.253 1.916-.079s-.258-.568-1.312-.525c-1.165.048-1.402.285-.604.604m-5 1c.721.289 1.584.253 1.916-.079s-.258-.568-1.312-.525c-1.165.048-1.402.285-.604.604m400 1c.721.289 1.584.253 1.916-.079s-.258-.568-1.312-.525c-1.165.048-1.402.285-.604.604m-433 1c.721.289 1.584.253 1.916-.079s-.258-.568-1.312-.525c-1.165.048-1.402.285-.604.604m427.745.224c-.309.498.34.671 1.441.383 2.335-.611 2.63-1.29.56-1.29-.793 0-1.693.408-2.001.907m-422.772 1.656c1.94 1.359 2.044 1.75.794 3-1.625 1.625-3.58 1.904-3.58.51 0-.509.788-1.115 1.75-1.345 1.609-.385 1.597-.484-.145-1.236-1.339-.577-2.272-.3-3.183.946-.709.969-1.738 1.485-2.286 1.146a1.19 1.19 0 0 0-1.626.4c-.345.559-.489 1.02-.319 1.024s5.668 1.337 12.217 2.961 12.249 2.743 12.665 2.486.907-.044 1.092.473c.384 1.078 53.709 15.532 54.475 14.766.276-.277-.992-.823-2.818-1.214s-3.772-1.069-4.322-1.506-3.925-1.532-7.5-2.432c-6.544-1.649-10.977-2.959-27.5-8.127-4.95-1.548-10.433-2.815-12.185-2.815s-2.989-.318-2.749-.707-.576-.484-1.815-.213c-1.621.355-1.874.226-.905-.462 1.312-.931-.472-1.963-7.346-4.25-1.461-.487-.654-.885 3-1.48l5-.813-5.5-1.295c-3.025-.712-6.388-1.314-7.473-1.338-1.847-.039-1.83.057.259 1.521m450.027-.88c.721.289 1.584.253 1.916-.079s-.258-.568-1.312-.525c-1.165.048-1.402.285-.604.604m-5 1c.721.289 1.584.253 1.916-.079s-.258-.568-1.312-.525c-1.165.048-1.402.285-.604.604m-7.063.979c.688.278 1.813.278 2.5 0 .688-.277.125-.504-1.25-.504s-1.937.227-1.25.504m-77.937 1.021c.721.289 1.584.253 1.916-.079s-.258-.568-1.312-.525c-1.165.048-1.402.285-.604.604m28 0c.721.289 1.584.253 1.916-.079s-.258-.568-1.312-.525c-1.165.048-1.402.285-.604.604m51.437.967c-1.269.524-1.783 3.35-.61 3.35.352 0 1.285-.788 2.074-1.75s1.106-1.117.704-.342c-.567 1.091-.191 1.263 1.676.763 1.323-.354 3.194-.65 4.156-.657s1.75-.351 1.749-.764c-.001-.874-7.908-1.36-9.749-.6M301 698c.825.533 1.95.969 2.5.969s.325-.436-.5-.969-1.95-.969-2.5-.969-.325.436.5.969m435.541-.207c-.934.934-16.002 5.067-30.041 8.239-2.2.498-8.941 2.494-14.979 4.436-11.877 3.821-12.958 4.048-12.021 2.532.864-1.398-.098-1.248-1.679.262-1.965 1.876-6.837 3.846-7.896 3.192-.509-.315-.925-.095-.925.487s-.75 1.059-1.667 1.059c-.916 0-1.413.253-1.104.562.595.596 14.352-2.896 50.271-12.759 23.878-6.557 27.259-7.551 26.5-7.786-1.975-.612-5.935-.749-6.459-.224m8.272-.11c.721.289 1.584.253 1.916-.079s-.258-.568-1.312-.525c-1.165.048-1.402.285-.604.604M361.5 699c.34.55.816 1 1.059 1s.441-.45.441-1-.477-1-1.059-1-.781.45-.441 1m297 .026c-2.2.444-5.335 1.321-6.966 1.948-2.36.908-2.666 1.33-1.5 2.068.806.51.994.934.416.943s-1.528-.463-2.112-1.047c-1.445-1.445-26.113 5.723-39.768 11.555-16.207 6.922-34.399 16.036-42.07 21.075-8.151 5.355-8.152 5.355 9.5-2.087 12.845-5.416 17.183-7.554 12.25-6.038-1.25.384-2.25.266-2.25-.267 0-1.118 7.374-4.256 10.962-4.666 1.354-.155 2.629-.783 2.833-1.396S601.217 720 602.5 720s2.483-.38 2.667-.846 2.583-1.127 5.333-1.471l5-.626-4 1.796c-2.2.988-5.125 2.337-6.5 2.998l-2.5 1.201 2.5-.627c8.549-2.145 14-3.999 14-4.761 0-.483-.698-.61-1.552-.282-.89.341-1.291.173-.941-.393.803-1.299 3.232-1.271 3.67.042.227.681 1.362.717 3.333.106 1.645-.51 6.047-1.704 9.784-2.655 3.736-.95 6.631-1.891 6.432-2.09-.331-.33-10.715 1.591-16.726 3.095-1.788.447-1.503.106 1-1.198 3.832-1.997 10.734-3.797 18.5-4.824 2.75-.364 5.243-1.053 5.54-1.532s2.996-1.161 6-1.517 6.003-1.084 6.666-1.618c.664-.533 1.645-.699 2.181-.368.536.332 1.3.076 1.698-.568q.725-1.171-.585-.362c-.866.535-1.068.418-.595-.345.392-.635 1.924-1.223 3.404-1.305 1.724-.096 1.073-.402-1.809-.85q-4.5-.7-1.75-.85c1.513-.082 2.75-.6 2.75-1.15 0-1.137-1.768-1.13-7.5.026m-366 .974c2.749 1.181 4.328 1.181 2.5 0-.825-.533-2.175-.945-3-.914-.989.036-.819.347.5.914m72.313-.317c.721.289 1.584.253 1.916-.079s-.258-.568-1.312-.525c-1.165.048-1.402.285-.604.604m2.838 1.785c-.31.807-.172 1.71.307 2.006s1.057-.018 1.283-.698c.32-.958.957-.975 2.836-.074 2.415 1.159 2.416 1.163.173 1.23-1.238.038-2.25.518-2.25 1.068s-.113 1.337-.25 1.75 2.225 1.039 5.25 1.392 7.3 1.173 9.5 1.821c2.2.649 6.025 1.582 8.5 2.073s11.7 3.409 20.5 6.485c8.8 3.075 16.45 5.722 17 5.882s2.267.809 3.815 1.443c1.548.635 3.251 1.154 3.783 1.154.533 0 3.232 1.147 5.998 2.549s6.238 2.979 7.716 3.505c6.382 2.273-1.82-2.544-16.312-9.581-16.305-7.918-32.863-14.149-52.704-19.833-14.508-4.157-14.39-4.14-15.145-2.172m35.349.318c0 1.215 2.854 2.422 4.021 1.701.463-.286 1.123-.062 1.469.497.775 1.253 2.51 1.339 2.51.124 0-.49-1.083-1.163-2.407-1.495s-3.124-.88-4-1.216-1.593-.161-1.593.389m249.813.897c.721.289 1.584.253 1.916-.079s-.258-.568-1.312-.525c-1.165.048-1.402.285-.604.604M412 705c0 .55 1.012.993 2.25.985 1.819-.013 1.963-.201.75-.985-1.939-1.253-3-1.253-3 0m198.199-.014c-1.815.43-3.582 1.064-3.927 1.408-.845.845 5.839-.453 7.728-1.501 1.79-.993.67-.965-3.801.093m-228.599.779c.605.404 1.357 1.41 1.671 2.235q.572 1.504.65-.75c.053-1.512-.495-2.245-1.671-2.235-1.079.01-1.328.297-.65.75m379.213-.082c.721.289 1.584.253 1.916-.079s-.258-.568-1.312-.525c-1.165.048-1.402.285-.604.604m-336.639 3.92c.896.896 2.109 1.464 2.695 1.263s-.147-.935-1.629-1.629c-2.491-1.168-2.572-1.14-1.066.366M597 710c0 .55.423 1 .941 1s1.219-.45 1.559-1-.084-1-.941-1-1.559.45-1.559 1m48.832.355c-5.544 1.731-5.448 2.425.176 1.273 2.746-.563 4.992-1.384 4.992-1.825 0-.968-.456-.919-5.168.552M591 712c-1.925 1.054-2.915 1.935-2.2 1.958 1.444.047 7.2-2.738 7.2-3.484 0-.859-1.452-.416-5 1.526m-7 3c-1.293.835-1.266.971.191.985.93.008 1.969-.435 2.309-.985.782-1.266-.542-1.266-2.5 0m-212.5 1.782c.55.546 4.15 1.762 8 2.703 6.669 1.63 31.181 9.581 56.895 18.454 6.542 2.258 12.065 3.935 12.273 3.726 1.515-1.515-64.228-24.803-69.088-24.473-1.144.077-3.655-.206-5.58-.631-2.317-.511-3.162-.436-2.5.221m102.233.342c.679.684 1.486.991 1.793.683.308-.308-.247-.867-1.233-1.243-1.425-.542-1.54-.428-.56.56m74.142-.624c-.069.275-.181 1.063-.25 1.75s-.687 1.25-1.375 1.25-1.25.337-1.25.75v1.307c0 1.233 4.392-2.617 4.599-4.033.198-1.345-1.406-2.298-1.724-1.024M621 723.925c-18.093 6.077-36.474 13.117-40.941 15.679l-2.559 1.469 2.5-.664c1.375-.365 5.425-1.779 9-3.141s14.15-5.089 23.5-8.28 19.25-6.692 22-7.782 5.375-1.993 5.833-2.01 1.096-.292 1.417-.613c1.664-1.664-5 .052-20.75 5.342m36.174-3.405c-2.929.714-5.629 1.605-6 1.979-.919.926 6.513-.499 10.826-2.077 4.455-1.631 2.062-1.582-4.826.098m-117.713 2.523c-1.803 1.993-1.801 2.025.095 1.33 1.904-.697 1.903-.662-.04 1.707-1.511 1.843-1.221 1.727 1.214-.483 1.759-1.597 2.963-3.284 2.675-3.75-.83-1.343-1.955-1.002-3.944 1.196M599 724.059c0 .582.45.781 1 .441s1-.816 1-1.059-.45-.441-1-.441-1 .477-1 1.059m-63.851 2.608c-.743.805-1.144 1.671-.892 1.923s1.036-.238 1.743-1.09c1.669-2.011.916-2.749-.851-.833m169.351 1.861c-2.2.725-3.1 1.319-2 1.319s3.575-.606 5.5-1.347c4.488-1.728 1.763-1.706-3.5.028m-86 2.472c-6.589 2.431-4.613 2.482 3 .078 3.3-1.043 5.1-1.902 4-1.909s-4.25.816-7 1.831m-159.081 6.509c4.153 2.819 11.581 6.747 11.581 6.125 0-.541-13.65-8.634-14.564-8.634-.393 0 .949 1.129 2.983 2.509m-96.606 4.174c.721.289 1.584.253 1.916-.079s-.258-.568-1.312-.525c-1.165.048-1.402.285-.604.604M574 742c-.825.533-1.05.969-.5.969s1.675-.436 2.5-.969 1.05-.969.5-.969-1.675.436-2.5.969m-122.127 1.539c2.611 1.922 12.145 5.776 12.762 5.159.214-.213-2.63-1.695-6.319-3.293-8.758-3.793-9.259-3.938-6.443-1.866M565 746.178c-3.025 1.598-4.6 2.631-3.5 2.295 7.944-2.426 9.525-3.095 9.953-4.212.646-1.683-.007-1.489-6.453 1.917m-18.035 30.52c-8.714 5.077-13.736 7.173-20.061 8.371-9.674 1.832-24.121 1.411-32.904-.958-4.366-1.178-7.64-1.621-7.835-1.061-.185.529-.86.671-1.5.315-.641-.356-.427.138.474 1.098 2.327 2.475 13.887 5.468 23.861 6.176 11.499.817 22.815-1.382 32.031-6.224 6.059-3.184 12.036-8.681 10.793-9.925-.217-.216-2.404.777-4.859 2.208M482 781c0 .55.702 1 1.559 1s1.281-.45.941-1-1.041-1-1.559-1-.941.45-.941 1m49.75 78.706c1.237.238 3.263.238 4.5 0 1.237-.239.225-.434-2.25-.434s-3.487.195-2.25.434m-96.937.977c.721.289 1.584.253 1.916-.079s-.258-.568-1.312-.525c-1.165.048-1.402.285-.604.604m45.937-.021c.688.278 1.813.278 2.5 0 .688-.277.125-.504-1.25-.504s-1.937.227-1.25.504M487 861c-1.219.788-1.09.972.691.985 1.205.008 2.469-.435 2.809-.985.787-1.273-1.53-1.273-3.5 0m9 0c0 .55.927 1 2.059 1s1.781-.45 1.441-1-1.266-1-2.059-1-1.441.45-1.441 1m16 1.969c0 .532.675.709 1.5.393.825-.317 1.5-.753 1.5-.969s-.675-.393-1.5-.393-1.5.436-1.5.969m-2.601 4.136c7.87 1.148 8.661 2.317 1.101 1.627-3.3-.301-6.9-.17-8 .29-1.215.509 2.906.819 10.5.789 7.795-.03 11.371-.335 9.5-.811-1.65-.42-2.325-.824-1.5-.897 1.333-.119 1.333-.241 0-1.103-.825-.533-5.1-.921-9.5-.863l-8 .107zm-40.586.578c.721.289 1.584.253 1.916-.079s-.258-.568-1.312-.525c-1.165.048-1.402.285-.604.604m9.764.442c.298.481 2.614.875 5.149.875 2.534 0 4.42-.165 4.191-.367-.943-.83-9.838-1.314-9.34-.508m13.506-.766c.23.198 1.767.662 3.417 1.031 2.191.49 2.595.397 1.5-.344-1.35-.914-5.92-1.552-4.917-.687m36.856.603c1.037.641 1.022.916-.076 1.411-1.987.898 14.142-.434 16.579-1.369 1.233-.472-1.922-.798-7.866-.813-5.458-.013-9.345.334-8.637.771m31.673 30.857c-.279.451.82.624 2.441.387 1.621-.238 2.947-.607 2.947-.819 0-.762-4.893-.37-5.388.432M514.5 914.082c-5.497.533-5.224.596 3.25.75 9.253.168 12.117-.296 6-.973-1.788-.197-5.95-.097-9.25.223m452.02 32.825c-1.513 6.89-10.743 16.313-18.77 19.163-4.504 1.6-4.74 2.554-.843 3.41 6.89 1.513 16.313 10.743 19.163 18.77 1.6 4.504 2.554 4.74 3.41.843 1.513-6.89 10.743-16.313 18.77-19.163 2.063-.733 3.75-1.601 3.75-1.93s-1.687-1.197-3.75-1.93-5.475-2.585-7.583-4.117c-4.581-3.329-8.909-9.054-10.737-14.203-1.6-4.504-2.554-4.74-3.41-.843"/></svg>